<svg width="60" height="60" viewBox="0 0 60 60" fill="none" xmlns="http://www.w3.org/2000/svg">
<path d="M14 18.405C14 16.5245 15.5245 15 17.405 15H33.6664C35.5469 15 37.0714 16.5245 37.0714 18.405V46.5714H14V18.405Z" fill="#FF704D"/>
<path d="M33.4286 35.8335C33.4286 34.3869 34.6012 33.2142 36.0478 33.2142H45.3807C46.8273 33.2142 48 34.3869 48 35.8335V46.5714H33.4286V35.8335Z" fill="#FFE2DB"/>
<path d="M33.4286 33.7463C33.4286 32.7819 34.2103 32.0001 35.1747 32.0001H46.2538C47.2182 32.0001 48 32.7819 48 33.7463V36.8573H33.4286V33.7463Z" fill="#FF704D"/>
<path d="M40.8542 43.0687C40.8542 41.779 41.8997 40.7335 43.1894 40.7335V40.7335C44.479 40.7335 45.5245 41.779 45.5245 43.0687V46.5714H40.8542V43.0687Z" fill="#353535"/>
<path d="M21.0053 35.7687C21.0053 35.2865 21.3962 34.8956 21.8784 34.8956H30.6404C31.1226 34.8956 31.5135 35.2865 31.5135 35.7687V46.5715H21.0053V35.7687Z" fill="#61281A"/>
<rect x="17.5029" y="19.8573" width="4.67033" height="4.67033" rx="0.873088" fill="#FEFEFE"/>
<rect x="17.5029" y="26.8625" width="4.67033" height="4.67033" rx="0.873088" fill="#FEFEFE"/>
<rect x="24.5076" y="19.8573" width="4.67033" height="4.67033" rx="0.873088" fill="#FEFEFE"/>
</svg>
