<svg width="24" height="24" viewBox="0 0 24 24" fill="none" xmlns="http://www.w3.org/2000/svg">
<path d="M10.3239 5.48523C11.7928 3.37094 14.6978 2.84745 16.8121 4.31628L17.0055 4.45789C18.9572 5.96581 19.4033 8.75622 17.9801 10.8046L15.3209 14.6327C14.0316 16.4883 11.6364 17.1175 9.64026 16.2509L7.18811 19.5419C6.82146 20.0338 6.12536 20.135 5.63342 19.7684C5.14148 19.4017 5.0392 18.7057 5.40588 18.2137L7.86975 14.9081C6.59634 13.3377 6.45218 11.0561 7.6637 9.31238L10.3239 5.48523ZM15.8405 5.71472C14.4988 4.78275 12.6544 5.11529 11.7223 6.45691L9.06311 10.2841C8.38389 11.2616 8.37817 12.5048 8.94299 13.4686L9.65002 12.5204C10.0167 12.0284 10.7128 11.9271 11.2047 12.2938C11.6966 12.6605 11.7989 13.3566 11.4323 13.8485L10.7067 14.8212C11.8832 15.1459 13.1865 14.7202 13.9225 13.661L16.5817 9.83289C17.5138 8.49128 17.1819 6.64699 15.8405 5.71472Z" fill="#FF704D"/>
</svg>
