<svg width="60" height="60" viewBox="0 0 60 60" fill="none" xmlns="http://www.w3.org/2000/svg">
<path d="M25.8734 28.2422C30.7642 25.7673 35.4951 24.28 39.1543 23.8375C40.9907 23.6154 42.468 23.6677 43.5299 23.9282C44.5987 24.1905 45.0372 24.6035 45.2071 24.9391C45.3769 25.2747 45.4499 25.8725 45.0282 26.8891C44.6093 27.899 43.7764 29.1203 42.5098 30.4685C39.986 33.1547 35.9857 36.0858 31.0949 38.5607C26.2041 41.0357 21.4732 42.5229 17.814 42.9654C15.9775 43.1875 14.5002 43.1353 13.4383 42.8747C12.3694 42.6124 11.9301 42.1999 11.7603 41.8643C11.5905 41.5287 11.5183 40.9303 11.94 39.9138C12.359 38.9039 13.1919 37.6826 14.4585 36.3344C16.9823 33.6482 20.9825 30.7171 25.8734 28.2422Z" stroke="#FF704D" stroke-width="3.2"/>
<path d="M39.0812 25.1384C39.4279 24.3314 40.5721 24.3314 40.9188 25.1384L42.8477 29.6281C42.9488 29.8635 43.1364 30.051 43.3718 30.1522L47.8615 32.0811C48.6685 32.4278 48.6685 33.572 47.8615 33.9187L43.3718 35.8476C43.1364 35.9487 42.9488 36.1363 42.8477 36.3716L40.9188 40.8613C40.5721 41.6683 39.4279 41.6683 39.0812 40.8613L37.1523 36.3716C37.0512 36.1363 36.8636 35.9487 36.6282 35.8476L32.1385 33.9187C31.3315 33.572 31.3315 32.4278 32.1385 32.0811L36.6282 30.1522C36.8636 30.051 37.0512 29.8635 37.1523 29.6281L39.0812 25.1384Z" fill="#FFE2DB"/>
<path d="M11.0812 24.1385C11.4279 23.3315 12.5721 23.3315 12.9188 24.1385L13.6456 25.8303C13.7468 26.0657 13.9343 26.2532 14.1697 26.3544L15.8615 27.0812C16.6685 27.4279 16.6685 28.5721 15.8615 28.9188L14.1697 29.6456C13.9343 29.7468 13.7468 29.9343 13.6456 30.1697L12.9188 31.8615C12.5721 32.6685 11.4279 32.6685 11.0812 31.8615L10.3544 30.1697C10.2532 29.9343 10.0657 29.7468 9.83032 29.6456L8.13854 28.9188C7.33153 28.5721 7.33153 27.4279 8.13854 27.0812L9.83032 26.3544C10.0657 26.2532 10.2532 26.0657 10.3544 25.8303L11.0812 24.1385Z" fill="#FFCD4D"/>
</svg>
