<svg width="48" height="48" viewBox="0 0 48 48" fill="none" xmlns="http://www.w3.org/2000/svg">
<rect width="48" height="48" rx="24" fill="white" fill-opacity="0.14"/>
<path d="M22.0322 16.3506C23.7569 13.8686 27.1672 13.2542 29.6494 14.9785C32.1315 16.7031 32.7457 20.1135 31.0215 22.5957L27.8985 27.0918L27.7315 27.3174C26.1846 29.3194 23.4888 29.9727 21.2285 28.9912L18.3496 32.8545C17.9191 33.4319 17.1019 33.5516 16.5244 33.1211C15.9469 32.6906 15.8284 31.8735 16.2588 31.2959L19.1514 27.4131C17.713 25.6394 17.5011 23.0936 18.7539 21.0801L18.9092 20.8457L22.0322 16.3506ZM28.5078 16.6211C26.9328 15.5272 24.7693 15.9167 23.6748 17.4912L20.5518 21.9864C19.7542 23.1344 19.7457 24.5951 20.4092 25.7266L21.2412 24.6104C21.6718 24.0331 22.489 23.9143 23.0664 24.3447C23.6439 24.7753 23.7634 25.5924 23.333 26.1699L22.4785 27.3155C23.8602 27.6974 25.3915 27.194 26.2559 25.9502L29.3789 21.4551C30.4731 19.8799 30.0829 17.7155 28.5078 16.6211Z" fill="white"/>
</svg>
